<mxfile host="65bd71144e">
    <diagram id="O2QjjLxtZTsg4sCn23vU" name="Page-1">
        <mxGraphModel dx="989" dy="549" grid="1" gridSize="10" guides="1" tooltips="1" connect="1" arrows="1" fold="1" page="1" pageScale="1" pageWidth="1100" pageHeight="850" math="0" shadow="0">
            <root>
                <mxCell id="0"/>
                <mxCell id="1" parent="0"/>
                <mxCell id="2" value="&lt;font color=&quot;#99ff99&quot;&gt;Server-Side Rules&lt;/font&gt;" style="rounded=0;whiteSpace=wrap;html=1;fillColor=#333333;fontColor=#FFFFFF;strokeColor=#CCCCCC;" parent="1" vertex="1">
                    <mxGeometry x="170" y="90" width="240" height="40" as="geometry"/>
                </mxCell>
                <mxCell id="3" value="Organization" style="rounded=0;whiteSpace=wrap;html=1;verticalAlign=top;fillColor=#333333;fontColor=#FFFFFF;strokeColor=#CCCCCC;" parent="1" vertex="1">
                    <mxGeometry x="170" y="130" width="240" height="150" as="geometry"/>
                </mxCell>
                <mxCell id="6" value="&lt;font color=&quot;#ffff99&quot;&gt;&lt;font&gt;Centralized &lt;/font&gt;&lt;br&gt;&lt;/font&gt;&lt;font color=&quot;#999999&quot;&gt;Client-Side Rules&lt;/font&gt;" style="rounded=0;whiteSpace=wrap;html=1;verticalAlign=top;fillColor=#333333;fontColor=#FFFFFF;strokeColor=#CCCCCC;align=center;spacingRight=50;" parent="1" vertex="1">
                    <mxGeometry x="170" y="160" width="240" height="120" as="geometry"/>
                </mxCell>
                <mxCell id="18" value="Repo" style="aspect=fixed;html=1;points=[];align=center;image;fontSize=12;image=img/lib/azure2/general/Files.svg;labelBackgroundColor=none;fontColor=#FFFFFF;strokeColor=#CCCCCC;" parent="1" vertex="1">
                    <mxGeometry x="190.64" y="220" width="27.43" height="30" as="geometry"/>
                </mxCell>
                <mxCell id="19" value="Repo" style="aspect=fixed;html=1;points=[];align=center;image;fontSize=12;image=img/lib/azure2/general/Files.svg;labelBackgroundColor=none;fontColor=#FFFFFF;strokeColor=#CCCCCC;" parent="1" vertex="1">
                    <mxGeometry x="240.64" y="220" width="27.43" height="30" as="geometry"/>
                </mxCell>
                <mxCell id="20" value="Repo" style="aspect=fixed;html=1;points=[];align=center;image;fontSize=12;image=img/lib/azure2/general/Files.svg;labelBackgroundColor=none;fontColor=#FFFFFF;strokeColor=#CCCCCC;" parent="1" vertex="1">
                    <mxGeometry x="290.64" y="220" width="27.43" height="30" as="geometry"/>
                </mxCell>
                <mxCell id="29" value="Rules Scope/Hierarchy" style="text;html=1;fillColor=none;align=center;verticalAlign=middle;whiteSpace=wrap;rounded=0;strokeColor=#666666;" parent="1" vertex="1">
                    <mxGeometry x="170" y="40" width="240" height="20" as="geometry"/>
                </mxCell>
                <mxCell id="35" value="&lt;font color=&quot;#ff6666&quot;&gt;Local &lt;/font&gt;&lt;br&gt;&lt;font color=&quot;#999999&quot;&gt;Client-Side Rules&lt;/font&gt;" style="rounded=0;whiteSpace=wrap;html=1;verticalAlign=top;fillColor=#333333;strokeColor=#CCCCCC;" parent="1" vertex="1">
                    <mxGeometry x="340" y="160" width="70" height="120" as="geometry"/>
                </mxCell>
                <mxCell id="36" value="Repo" style="aspect=fixed;html=1;points=[];align=center;image;fontSize=12;image=img/lib/azure2/general/Files.svg;labelBackgroundColor=none;fontColor=#FFFFFF;strokeColor=#CCCCCC;" parent="1" vertex="1">
                    <mxGeometry x="361.93" y="220" width="27.43" height="30" as="geometry"/>
                </mxCell>
            </root>
        </mxGraphModel>
    </diagram>
</mxfile>